<svg width="18" height="18" viewBox="0 0 18 18" fill="none" xmlns="http://www.w3.org/2000/svg">
<path fill-rule="evenodd" clip-rule="evenodd" d="M9.00159 3C12.1036 3.00149 14.8898 5.16474 16.455 8.78532C16.515 8.92247 16.515 9.07753 16.455 9.21543C16.269 9.64555 16.062 10.0637 15.8385 10.4558C15.6893 10.7197 15.3563 10.8114 15.0908 10.6638C14.8268 10.5147 14.7338 10.183 14.8823 9.92061C15.0488 9.62766 15.2063 9.3183 15.351 9C13.9508 5.9221 11.5898 4.09206 9.00009 4.09132C6.40963 4.09206 4.04866 5.9221 2.64842 9C4.04866 12.0779 6.40963 13.9087 9.00009 13.9087C10.5061 13.9087 11.9588 13.2855 13.2015 12.1055C13.4213 11.899 13.7678 11.9064 13.977 12.1241C14.187 12.341 14.178 12.6862 13.959 12.8941C12.5093 14.271 10.7956 14.9993 9.00159 15H8.99859H8.99784C5.89663 14.9985 3.11042 12.836 1.54444 9.21543C1.48519 9.07827 1.48519 8.92247 1.54444 8.78532C3.11042 5.16474 5.89663 3.00149 8.99784 3H9.00009H9.00159ZM8.06148 10.5592C8.34348 10.7276 8.66822 10.8163 8.99972 10.8163C10.007 10.8163 10.8267 10.0016 10.8267 8.9997C10.8267 7.99933 10.007 7.18457 8.99972 7.18457C7.99248 7.18457 7.17274 7.99933 7.17274 8.9997C7.17274 9.3016 6.92674 9.54536 6.62375 9.54536C6.32075 9.54536 6.07551 9.3016 6.07551 8.9997C6.07551 7.39702 7.38724 6.09325 8.99972 6.09325C10.6122 6.09325 11.9239 7.39702 11.9239 8.9997C11.9239 10.6031 10.6122 11.9069 8.99972 11.9069C8.46873 11.9069 7.94898 11.7638 7.49674 11.4932C7.23649 11.3389 7.15249 11.0034 7.30924 10.7448C7.46524 10.4876 7.80273 10.4019 8.06148 10.5592Z" fill="#200E32"/>
</svg>
