<svg width="18" height="18" viewBox="0 0 18 18" fill="none" xmlns="http://www.w3.org/2000/svg">
<path fill-rule="evenodd" clip-rule="evenodd" d="M12.225 16.4618H9.735C9.4245 16.4618 9.1725 16.2097 9.1725 15.8993C9.1725 15.5887 9.4245 15.3368 9.735 15.3368H12.225C14.1202 15.3368 15.345 14.0415 15.345 12.0375V5.92425C15.345 3.9195 14.1202 2.625 12.225 2.625H5.7375C3.84675 2.625 2.625 3.9195 2.625 5.92425V12.0375C2.625 14.0415 3.84675 15.3368 5.7375 15.3368H6.27825C6.58875 15.3368 6.84075 15.5887 6.84075 15.8993C6.84075 16.2097 6.58875 16.4618 6.27825 16.4618H5.7375C3.20325 16.4618 1.5 14.6835 1.5 12.0375V5.92425C1.5 3.27825 3.20325 1.5 5.7375 1.5H12.225C14.7645 1.5 16.47 3.27825 16.47 5.92425V12.0375C16.47 14.6835 14.7645 16.4618 12.225 16.4618ZM3.96112 12.8868C3.82237 12.8868 3.68287 12.8358 3.57412 12.733C3.34912 12.5193 3.33937 12.163 3.55312 11.9373L4.69987 10.7268C5.00587 10.4028 5.41987 10.2235 5.86612 10.222C6.29662 10.2506 6.72787 10.3968 7.03687 10.7178L7.69762 11.3913C7.80037 11.4963 7.93537 11.5548 8.08612 11.5443C8.23312 11.5375 8.36587 11.4715 8.45962 11.3575L10.1314 9.32355C10.4614 8.9223 10.9489 8.6793 11.4686 8.65755C11.9869 8.6418 12.4939 8.83905 12.8554 9.2118L14.4131 10.8175C14.6291 11.041 14.6239 11.3973 14.4004 11.6133C14.1776 11.83 13.8214 11.8233 13.6054 11.6013L12.0476 9.99555C11.9066 9.85005 11.7221 9.7683 11.5144 9.7818C11.3119 9.79005 11.1296 9.88155 11.0006 10.0383L9.32887 12.0723C9.03412 12.4308 8.59912 12.6483 8.13562 12.6685C7.67137 12.6783 7.21987 12.5103 6.89437 12.1795L6.22987 11.5015C6.13237 11.401 6.00862 11.3125 5.87062 11.347C5.73487 11.3478 5.60962 11.4025 5.51662 11.5L4.36912 12.7113C4.25887 12.8283 4.11037 12.8868 3.96112 12.8868ZM6.42023 8.7282C5.38447 8.7282 4.54222 7.88595 4.54222 6.8502C4.54222 5.81445 5.38447 4.9722 6.42023 4.9722C7.45522 4.9722 8.29747 5.81445 8.29747 6.8502C8.29747 7.88595 7.45522 8.7282 6.42023 8.7282ZM6.42023 6.0972C6.00472 6.0972 5.66722 6.4347 5.66722 6.8502C5.66722 7.2657 6.00472 7.6032 6.42023 7.6032C6.83498 7.6032 7.17248 7.2657 7.17248 6.8502C7.17248 6.4347 6.83498 6.0972 6.42023 6.0972Z" fill="#200E32"/>
</svg>
