<svg width="46" height="46" viewBox="0 0 46 46" fill="none" xmlns="http://www.w3.org/2000/svg">
<circle cx="23" cy="23" r="23" fill="#E31A1A"/>
<path d="M26.8225 19.1835C26.5859 18.9469 26.2036 18.9469 25.967 19.1835L23 22.1445L20.033 19.1775C19.7964 18.9408 19.4141 18.9408 19.1775 19.1775C18.9408 19.4141 18.9408 19.7964 19.1775 20.033L22.1445 23L19.1775 25.967C18.9408 26.2036 18.9408 26.5859 19.1775 26.8225C19.4141 27.0592 19.7964 27.0592 20.033 26.8225L23 23.8555L25.967 26.8225C26.2036 27.0592 26.5859 27.0592 26.8225 26.8225C27.0592 26.5859 27.0592 26.2036 26.8225 25.967L23.8555 23L26.8225 20.033C27.0531 19.8024 27.0531 19.4141 26.8225 19.1835Z" fill="white"/>
</svg>
