<svg width="18" height="18" viewBox="0 0 18 18" fill="none" xmlns="http://www.w3.org/2000/svg">
<path fill-rule="evenodd" clip-rule="evenodd" d="M14.6279 1.55797C15.1417 1.40851 15.6982 1.55269 16.0755 1.9369C16.4528 2.32035 16.5923 2.87968 16.4385 3.39749L15.5017 6.54891C15.4125 6.84858 15.1005 7.01842 14.8019 6.92935C14.5042 6.83952 14.3347 6.524 14.4239 6.22509L15.3607 3.07292C15.4132 2.89629 15.3195 2.77702 15.2767 2.734C15.234 2.69022 15.114 2.59511 14.9407 2.64568L2.87203 6.15489C2.68002 6.21075 2.63802 6.37153 2.62902 6.43795C2.62077 6.50438 2.61777 6.67044 2.78878 6.77612L5.32836 8.33862C5.59312 8.50166 5.67713 8.85039 5.51437 9.1176C5.40862 9.29121 5.22411 9.38783 5.03435 9.38783C4.9346 9.38783 4.83335 9.36141 4.74184 9.3048L2.20226 7.74155C1.69899 7.43206 1.43498 6.875 1.51373 6.28699C1.59248 5.69822 1.99375 5.23098 2.56002 5.06642L14.6279 1.55797ZM13.5211 9.26193C13.6111 8.9615 13.9239 8.79091 14.2216 8.88149C14.5194 8.97132 14.6889 9.28684 14.5997 9.5865L12.8581 15.447C12.6893 16.0139 12.2228 16.4124 11.6401 16.4872C11.5748 16.4962 11.5103 16.5 11.4458 16.5C10.9373 16.5 10.4723 16.2388 10.2015 15.7905L7.1264 10.6984C6.99215 10.4749 7.0259 10.1881 7.20965 10.0039L11.5756 5.61005C11.7953 5.38889 12.1508 5.38889 12.3706 5.61005C12.5903 5.83122 12.5903 6.18976 12.3706 6.41093L8.31744 10.4908L11.163 15.2024C11.2665 15.3738 11.4293 15.3723 11.4968 15.3647C11.5628 15.3557 11.7226 15.3149 11.7796 15.1232L13.5211 9.26193Z" fill="#200E32"/>
</svg>
