<svg width="18" height="18" viewBox="0 0 18 18" fill="none" xmlns="http://www.w3.org/2000/svg">
<path fill-rule="evenodd" clip-rule="evenodd" d="M16.3315 8.51957C16.2237 8.62615 16.0777 8.68514 15.9261 8.68338V8.67018C15.6092 8.67018 15.3522 8.41325 15.3522 8.09631V6.18997C15.3522 3.90106 14.0989 2.64776 11.8166 2.64776H6.18997C3.90765 2.64776 2.64776 3.90765 2.64776 6.18997V11.8166C2.64776 14.0923 3.90765 15.3522 6.18997 15.3522H11.8166C14.0989 15.3522 15.3522 14.0923 15.3522 11.8166C15.3522 11.4997 15.6092 11.2427 15.9261 11.2427C16.2431 11.2427 16.5 11.4997 16.5 11.8166C16.5 14.7058 14.7058 16.5 11.8166 16.5H6.18997C3.2942 16.5 1.5 14.7058 1.5 11.8166V6.18997C1.5 3.2942 3.2942 1.5 6.18997 1.5H11.8166C14.6926 1.5 16.5 3.2942 16.5 6.18997V8.11609C16.5 8.2677 16.4393 8.413 16.3315 8.51957ZM9.02639 5.88654C9.08813 5.88653 9.14882 5.89657 9.20628 5.91577C9.44531 5.98507 9.62005 6.20564 9.62005 6.46702V8.26121H11.5726C11.6403 8.26042 11.7068 8.27174 11.7694 8.294C11.8567 8.3215 11.9369 8.36998 12.0024 8.43629C12.109 8.5441 12.168 8.6901 12.1662 8.84169C12.1663 9.15355 11.9173 9.4084 11.6055 9.41557H11.566H6.4934C6.4446 9.41446 6.39731 9.40735 6.35224 9.39495C6.09492 9.33707 5.90277 9.10866 5.89974 8.83509C5.89797 8.6835 5.95696 8.53751 6.06354 8.42969C6.17012 8.32188 6.31542 8.2612 6.46702 8.26121H8.44591V6.46042C8.45301 6.1439 8.70981 5.89002 9.02639 5.88654ZM8.4591 11.5132V10.8536V10.7876C8.46426 10.6354 8.52973 10.4914 8.64109 10.3875C8.75244 10.2836 8.90054 10.2282 9.05277 10.2335C9.20561 10.2369 9.35061 10.3018 9.45491 10.4136C9.55922 10.5253 9.61401 10.6745 9.60686 10.8272V11.5528C9.6017 11.705 9.53623 11.8489 9.42488 11.9529C9.31352 12.0568 9.16542 12.1122 9.01319 12.1069C8.69778 12.0926 8.45161 11.8288 8.4591 11.5132Z" fill="#200E32"/>
</svg>
