<svg width="18" height="18" viewBox="0 0 18 18" fill="none" xmlns="http://www.w3.org/2000/svg">
<path fill-rule="evenodd" clip-rule="evenodd" d="M13.2167 3.66592C13.6896 4.04076 14.013 4.53373 14.1259 5.05505C14.2521 5.637 14.1127 6.22762 13.734 6.71586L7.2759 15.0443C6.94945 15.4656 6.45861 15.7113 5.92803 15.7184L3.4364 15.7499H3.42939C3.15748 15.7499 2.9214 15.5609 2.85985 15.2932L2.29577 12.8409C2.17579 12.3188 2.29421 11.7778 2.62144 11.3565L3.46913 10.2627C3.6678 10.006 4.03555 9.96031 4.28954 10.1627C4.54353 10.3635 4.58794 10.7352 4.38849 10.9919L3.5408 12.0857C3.43329 12.2243 3.39433 12.4015 3.43407 12.5732L3.89141 14.5624L5.91322 14.5372C6.08697 14.5348 6.24825 14.4545 6.35576 14.3159L12.8139 5.98743C12.9791 5.77481 13.0359 5.54644 12.9845 5.30704C12.9292 5.05426 12.7562 4.80147 12.496 4.59594L11.413 3.73679C10.9939 3.40605 10.4025 3.23595 9.99893 3.75805L9.14579 4.85739L10.4999 5.95514C10.7516 6.15832 10.7921 6.5308 10.5903 6.78437C10.475 6.93084 10.3051 7.00644 10.1337 7.00644C10.0059 7.00644 9.87661 6.96392 9.76909 6.87651L8.42511 5.78741L6.21552 8.63733C6.01607 8.89405 5.6491 8.94051 5.39433 8.73734C5.14112 8.53653 5.09671 8.16484 5.29538 7.90811L9.07879 3.02884C9.81272 2.0807 11.0983 1.98778 12.1337 2.80755L13.2167 3.66592ZM10.1972 14.5688H15.1657C15.4882 14.5688 15.75 14.8334 15.75 15.1594C15.75 15.4854 15.4882 15.75 15.1657 15.75H10.1972C9.87388 15.75 9.61287 15.4854 9.61287 15.1594C9.61287 14.8334 9.87388 14.5688 10.1972 14.5688Z" fill="#200E32"/>
</svg>
