<svg width="18" height="18" viewBox="0 0 18 18" fill="none" xmlns="http://www.w3.org/2000/svg">
<path fill-rule="evenodd" clip-rule="evenodd" d="M2.62508 10.4617C2.62508 10.7645 2.37308 11.0103 2.06264 11.0103C1.7522 11.0103 1.50019 10.7645 1.50019 10.4617V5.03578C1.50019 3.29293 2.95378 1.875 4.74118 1.875H8.30064C10.0917 1.875 11.5489 3.29649 11.5489 5.04361V5.70698C11.5489 6.00909 11.2969 6.25491 10.9865 6.25491C10.676 6.25491 10.424 6.00909 10.424 5.70698V5.04361C10.424 3.90072 9.47154 2.97229 8.30064 2.97229H4.74118C3.57393 2.97229 2.62508 3.89858 2.62508 5.03578V10.4617ZM10.4238 12.2937C10.4238 11.9909 10.6758 11.7451 10.9863 11.7451C11.2967 11.7451 11.5487 11.9909 11.5487 12.2937V12.9642C11.5487 14.7071 10.0951 16.125 8.30775 16.125H4.74756C2.95724 16.125 1.5 14.7035 1.5 12.9564C1.5 12.6536 1.752 12.4085 2.06244 12.4085C2.37288 12.4085 2.62489 12.6536 2.62489 12.9564C2.62489 14.0993 3.57739 15.0277 4.74756 15.0277H8.30775C9.475 15.0277 10.4238 14.1021 10.4238 12.9642V12.2937ZM16.4575 8.79066C16.3705 8.58474 16.1653 8.45078 15.9374 8.45078H7.16182C6.85138 8.45078 6.59865 8.69732 6.59865 9.00014C6.59865 9.30297 6.85138 9.54879 7.16182 9.54879H14.5758L13.4064 10.6846C13.1858 10.8983 13.1858 11.2453 13.4049 11.4605C13.5145 11.5681 13.6591 11.6222 13.803 11.6222C13.9469 11.6222 14.0901 11.5681 14.2004 11.4619L16.3348 9.38918C16.4954 9.23243 16.5444 8.99587 16.4575 8.79066ZM14.3414 7.99555C14.1982 7.99555 14.055 7.94211 13.9455 7.83665L13.4071 7.31722C13.1865 7.10418 13.1851 6.75646 13.4035 6.54199C13.6226 6.32538 13.9776 6.32396 14.1989 6.53772L14.7365 7.05644C14.9579 7.27019 14.9593 7.6172 14.7409 7.83238C14.6306 7.94068 14.486 7.99555 14.3414 7.99555Z" fill="#200E32"/>
</svg>
