<svg width="18" height="18" viewBox="0 0 18 18" fill="none" xmlns="http://www.w3.org/2000/svg">
<path fill-rule="evenodd" clip-rule="evenodd" d="M16.1184 4.08237V6.22898C16.1254 6.81263 15.9051 7.37524 15.5058 7.79301C15.1064 8.21077 14.5609 8.44948 13.9892 8.4566H13.1163C12.8206 8.42428 12.5963 8.16954 12.5963 7.86594C12.5963 7.56234 12.8206 7.3076 13.1163 7.27528H13.9627C14.2304 7.27351 14.4864 7.16277 14.6739 6.96761C14.8613 6.77246 14.9647 6.50902 14.9612 6.23573V4.08237C14.9541 3.52246 14.5112 3.07033 13.9627 3.06306H11.8533C11.3019 3.06306 10.8548 3.51942 10.8548 4.08237V7.30229C10.844 7.62879 10.5797 7.88667 10.2597 7.88282C10.1059 7.8793 9.95993 7.81307 9.85432 7.69892C9.74871 7.58477 9.69228 7.4322 9.69762 7.27528V4.08237C9.69586 3.49756 9.9222 2.93609 10.3267 2.52193C10.7311 2.10777 11.2804 1.875 11.8533 1.875H13.9627C15.144 1.90363 16.094 2.87636 16.1184 4.08237ZM6.14669 1.875H4.0373C2.8461 1.88237 1.88222 2.86634 1.875 4.08237V6.23573C1.88225 7.45065 2.84717 8.43266 4.0373 8.43635H6.14669C6.71956 8.43814 7.26957 8.20708 7.67527 7.79419C8.08097 7.3813 8.30899 6.82054 8.30899 6.23573V4.08237C8.30536 2.86481 7.33939 1.87871 6.14669 1.875ZM7.14519 6.23573C7.14871 6.50902 7.04529 6.77246 6.85784 6.96761C6.67039 7.16277 6.41442 7.27351 6.14669 7.27528H4.0373C3.76558 7.28085 3.50339 7.17312 3.31122 6.97694C3.11905 6.78077 3.01351 6.51311 3.01897 6.23573V4.08237C3.01891 3.80848 3.12683 3.5461 3.3184 3.35435C3.50996 3.16261 3.76906 3.05762 4.0373 3.06306H6.14669C6.69664 3.06674 7.14158 3.52095 7.14519 4.08237V6.23573ZM11.8533 9.56365H13.9627C15.1528 9.56734 16.1177 10.5494 16.125 11.7643V13.9176C16.1178 15.1337 15.1539 16.1176 13.9627 16.125H11.8533C10.6632 16.1176 9.70123 15.1326 9.69762 13.9176V11.7643C9.69762 10.5489 10.6628 9.56365 11.8533 9.56365ZM14.6707 14.6404C14.8583 14.4488 14.963 14.1885 14.9612 13.9176V11.7643C14.9612 11.4939 14.856 11.2347 14.6687 11.0435C14.4815 10.8524 14.2275 10.745 13.9627 10.745H11.8533C11.3019 10.745 10.8548 11.2013 10.8548 11.7643V13.9176C10.853 14.1885 10.9577 14.4488 11.1453 14.6404C11.3329 14.8319 11.5879 14.9387 11.8533 14.9369H13.9627C14.2281 14.9387 14.4831 14.8319 14.6707 14.6404ZM1.875 13.9109V11.7643C1.875 11.1795 2.10302 10.6187 2.50872 10.2058C2.91442 9.79293 3.46443 9.56187 4.0373 9.56366H4.90354C5.12502 9.53946 5.3406 9.64645 5.45876 9.83921C5.57692 10.032 5.57692 10.2767 5.45876 10.4694C5.3406 10.6622 5.12502 10.7692 4.90354 10.745H4.0373C3.48477 10.745 3.03583 11.2002 3.03219 11.7643V13.8906C3.04624 14.4502 3.48913 14.8993 4.0373 14.9099H6.15992C6.42588 14.9117 6.68155 14.8051 6.87024 14.6138C7.05892 14.4224 7.16503 14.1622 7.16502 13.8906V10.6977C7.1219 10.4593 7.22505 10.218 7.42565 10.0882C7.62625 9.95834 7.88401 9.96599 8.07688 10.1075C8.26975 10.249 8.359 10.496 8.30238 10.7315V13.9109C8.30238 15.13 7.33428 16.1183 6.14008 16.1183H4.0373C2.85342 16.0932 1.89956 15.1195 1.875 13.9109Z" fill="#4318FF"/>
</svg>
