<svg width="100" height="100" viewBox="0 0 100 100" fill="none" xmlns="http://www.w3.org/2000/svg">
<path opacity="0.4" d="M91.6663 49.9992C91.6663 73.0158 73.0122 91.6658 49.9997 91.6658C26.9872 91.6658 8.33301 73.0158 8.33301 49.9992C8.33301 26.9908 26.9872 8.3325 49.9997 8.3325C73.0122 8.3325 91.6663 26.9908 91.6663 49.9992" fill="#FFC107"/>
<path fill-rule="evenodd" clip-rule="evenodd" d="M53.6249 52.6279C53.6249 54.6362 51.9874 56.2737 49.9791 56.2737C47.9708 56.2737 46.3333 54.6362 46.3333 52.6279V34.2112C46.3333 32.2029 47.9708 30.5654 49.9791 30.5654C51.9874 30.5654 53.6249 32.2029 53.6249 34.2112V52.6279ZM46.3541 65.8479C46.3541 63.8396 47.9833 62.2021 49.9791 62.2021C52.0333 62.2021 53.6666 63.8396 53.6666 65.8479C53.6666 67.8563 52.0333 69.4938 50.0208 69.4938C47.9999 69.4938 46.3541 67.8563 46.3541 65.8479Z" fill="white"/>
</svg>
