<svg width="18" height="18" viewBox="0 0 18 18" fill="none" xmlns="http://www.w3.org/2000/svg">
<path fill-rule="evenodd" clip-rule="evenodd" d="M6.10341 1.5H11.8901C14.3001 1.5 15.7435 2.96358 15.75 5.40728V12.5927C15.75 15.0364 14.3131 16.5 11.8966 16.5H9.75435C9.47962 16.4693 9.27168 16.2339 9.27168 15.9536C9.27168 15.6734 9.47962 15.438 9.75435 15.4073H11.8901C13.7319 15.4073 14.6593 14.4603 14.6593 12.5927V5.40728C14.6593 3.53974 13.7319 2.59272 11.8901 2.59272H6.10341C4.26161 2.59272 3.32765 3.53974 3.32765 5.40728V12.5927C3.32765 14.4603 4.26161 15.4073 6.10341 15.4073C6.37814 15.438 6.58609 15.6734 6.58609 15.9536C6.58609 16.2339 6.37814 16.4693 6.10341 16.5C3.6934 16.5 2.25 15.0364 2.25 12.5927V5.40728C2.25 2.95695 3.6934 1.5 6.10341 1.5ZM6.29282 6.37417H8.35015C8.62488 6.34346 8.83282 6.10807 8.83282 5.82782C8.83282 5.54756 8.62488 5.31217 8.35015 5.28146H6.29282C6.01809 5.31217 5.81014 5.54756 5.81014 5.82782C5.81014 6.10807 6.01809 6.34346 6.29282 6.37417ZM11.6942 9.54648H6.29292H6.28639C6.01166 9.51576 5.80371 9.28038 5.80371 9.00012C5.80371 8.71986 6.01166 8.48448 6.28639 8.45376H11.6942C11.9009 8.43065 12.1024 8.52944 12.2129 8.70805C12.3233 8.88665 12.3233 9.11359 12.2129 9.29219C12.1024 9.47079 11.9009 9.56958 11.6942 9.54648ZM11.6941 12.7187H6.29282H6.28629C5.99051 12.7187 5.75073 12.4755 5.75073 12.1756C5.75073 11.8757 5.99051 11.6326 6.28629 11.6326H11.6941C11.9899 11.6326 12.2297 11.8757 12.2297 12.1756C12.2297 12.4755 11.9899 12.7187 11.6941 12.7187Z" fill="#200E32"/>
</svg>
