<svg width="18" height="18" viewBox="0 0 18 18" fill="none" xmlns="http://www.w3.org/2000/svg">
<path fill-rule="evenodd" clip-rule="evenodd" d="M6.78462 4.12271H15.2145C15.5101 4.12271 15.75 4.36796 15.75 4.67095C15.75 4.9747 15.5101 5.21994 15.2145 5.21994H2.78473C2.4892 5.21994 2.25 4.9747 2.25 4.67095C2.25 4.36796 2.4892 4.12271 2.78473 4.12271H5.18043C5.49936 4.12271 5.77661 3.88946 5.83878 3.56997L6.01727 2.65498C6.19795 1.96049 6.78316 1.5 7.44883 1.5H10.5512C11.2168 1.5 11.802 1.96049 11.9747 2.62048C12.0515 2.91373 11.8818 3.21447 11.5965 3.29322C11.3119 3.37197 11.0179 3.19797 10.9411 2.90473C10.8935 2.72398 10.7333 2.59798 10.5512 2.59798H7.44883C7.26669 2.59798 7.10649 2.72398 7.05894 2.90473L6.8885 3.78447C6.86509 3.90296 6.82852 4.01396 6.78462 4.12271ZM6.11603 15.3725C5.42841 15.3575 5.03924 14.975 4.95951 14.2348C4.72982 12.1176 4.33626 7.10392 4.33261 7.05367C4.3092 6.75142 4.05098 6.53617 3.75618 6.54967C3.46138 6.57442 3.24193 6.83917 3.26607 7.14067C3.26972 7.19166 3.66401 12.2226 3.89516 14.3571C4.03342 15.6343 4.87539 16.4435 6.09408 16.4698H6.10505C6.39546 16.4698 6.63393 16.232 6.64052 15.9328C6.64637 15.6298 6.41156 15.3785 6.11603 15.3725ZM14.2437 6.5499C13.9525 6.53415 13.6907 6.7509 13.6672 7.05314C13.6636 7.10339 13.2671 12.1306 13.0396 14.2313C12.9584 14.9873 12.5641 15.3615 11.8334 15.3758L11.5427 15.381C10.6149 15.3977 10.183 15.4054 9.14652 15.402H9.14506C8.84953 15.402 8.61032 15.6458 8.60959 15.948C8.60813 16.2518 8.84733 16.4977 9.14286 16.4992C9.32574 16.5 9.50789 16.5 9.69076 16.5C10.4552 16.5 10.7605 16.4939 11.3338 16.4824C11.4841 16.4794 11.6528 16.476 11.8531 16.4722C13.1215 16.449 13.9635 15.6563 14.104 14.3513C14.3329 12.2356 14.7301 7.19189 14.7338 7.14164C14.7579 6.8394 14.5385 6.57465 14.2437 6.5499Z" fill="#200E32"/>
</svg>
